<svg xmlns="http://www.w3.org/2000/svg" xmlns:xlink="http://www.w3.org/1999/xlink" width="500" zoomAndPan="magnify" viewBox="0 0 375 374.999991" height="500" preserveAspectRatio="xMidYMid meet" version="1.0"><path fill="#000000" d="M 348.75 45 L 315 45 L 315 7.5 C 315 3.359375 311.648438 0 307.5 0 C 303.351562 0 300 3.359375 300 7.5 L 300 45 L 75 45 L 75 7.5 C 75 3.359375 71.640625 0 67.5 0 C 63.359375 0 60 3.359375 60 7.5 L 60 45 L 26.25 45 C 11.773438 45 0 56.773438 0 71.25 L 0 348.75 C 0 363.226562 11.773438 375 26.25 375 L 348.75 375 C 363.226562 375 375 363.226562 375 348.75 L 375 71.25 C 375 56.773438 363.226562 45 348.75 45 Z M 26.25 60 L 60 60 L 60 82.5 C 60 86.640625 63.359375 90 67.5 90 C 71.640625 90 75 86.640625 75 82.5 L 75 60 L 300 60 L 300 82.5 C 300 86.640625 303.351562 90 307.5 90 C 311.648438 90 315 86.640625 315 82.5 L 315 60 L 348.75 60 C 354.953125 60 360 65.046875 360 71.25 L 360 120 L 15 120 L 15 71.25 C 15 65.046875 20.046875 60 26.25 60 Z M 348.75 360 L 26.25 360 C 20.046875 360 15 354.953125 15 348.75 L 15 135 L 360 135 L 360 348.75 C 360 354.953125 354.953125 360 348.75 360 Z M 348.75 360 " fill-opacity="1" fill-rule="nonzero"/><path fill="#000000" d="M 52.5 172.5 L 82.5 172.5 L 82.5 202.5 L 52.5 202.5 Z M 52.5 172.5 " fill-opacity="1" fill-rule="nonzero"/><path fill="#000000" d="M 112.5 172.5 L 142.5 172.5 L 142.5 202.5 L 112.5 202.5 Z M 112.5 172.5 " fill-opacity="1" fill-rule="nonzero"/><path fill="#000000" d="M 172.5 172.5 L 202.5 172.5 L 202.5 202.5 L 172.5 202.5 Z M 172.5 172.5 " fill-opacity="1" fill-rule="nonzero"/><path fill="#000000" d="M 232.5 172.5 L 262.5 172.5 L 262.5 202.5 L 232.5 202.5 Z M 232.5 172.5 " fill-opacity="1" fill-rule="nonzero"/><path fill="#000000" d="M 292.5 172.5 L 322.5 172.5 L 322.5 202.5 L 292.5 202.5 Z M 292.5 172.5 " fill-opacity="1" fill-rule="nonzero"/><path fill="#000000" d="M 52.5 232.5 L 82.5 232.5 L 82.5 262.5 L 52.5 262.5 Z M 52.5 232.5 " fill-opacity="1" fill-rule="nonzero"/><path fill="#000000" d="M 112.5 232.5 L 142.5 232.5 L 142.5 262.5 L 112.5 262.5 Z M 112.5 232.5 " fill-opacity="1" fill-rule="nonzero"/><path fill="#000000" d="M 172.5 232.5 L 202.5 232.5 L 202.5 262.5 L 172.5 262.5 Z M 172.5 232.5 " fill-opacity="1" fill-rule="nonzero"/><path fill="#000000" d="M 232.5 232.5 L 262.5 232.5 L 262.5 262.5 L 232.5 262.5 Z M 232.5 232.5 " fill-opacity="1" fill-rule="nonzero"/><path fill="#000000" d="M 292.5 232.5 L 322.5 232.5 L 322.5 262.5 L 292.5 262.5 Z M 292.5 232.5 " fill-opacity="1" fill-rule="nonzero"/><path fill="#000000" d="M 52.5 292.5 L 82.5 292.5 L 82.5 322.5 L 52.5 322.5 Z M 52.5 292.5 " fill-opacity="1" fill-rule="nonzero"/><path fill="#000000" d="M 112.5 292.5 L 142.5 292.5 L 142.5 322.5 L 112.5 322.5 Z M 112.5 292.5 " fill-opacity="1" fill-rule="nonzero"/><path fill="#000000" d="M 172.5 292.5 L 202.5 292.5 L 202.5 322.5 L 172.5 322.5 Z M 172.5 292.5 " fill-opacity="1" fill-rule="nonzero"/><path fill="#000000" d="M 232.5 292.5 L 262.5 292.5 L 262.5 322.5 L 232.5 322.5 Z M 232.5 292.5 " fill-opacity="1" fill-rule="nonzero"/><path fill="#000000" d="M 292.5 292.5 L 322.5 292.5 L 322.5 322.5 L 292.5 322.5 Z M 292.5 292.5 " fill-opacity="1" fill-rule="nonzero"/></svg>