<svg xmlns="http://www.w3.org/2000/svg" xmlns:svgjs="http://svgjs.com/svgjs" xmlns:xlink="http://www.w3.org/1999/xlink" width="288" height="288"><svg xmlns="http://www.w3.org/2000/svg" width="288" height="288" fill="none" viewBox="0 0 180 336"><ellipse cx="90.447" cy="250.5" fill="#fff" class="color000 svgShape" rx="89.553" ry="85.5"/><ellipse cx="106.943" cy="89" fill="#fff" class="color000 svgShape" rx="32.522" ry="30"/><path stroke="#fff" d="M3.01117 250.666C-4.6456 238.742 28.5177 130.691 85.0708 67.377M135.211 74.886C159.07 103.275 134.714 161.03 166.319 215.886M173.364 220.355C161.369 195.026 148.226 172.277 145.992 143" class="colorStroke000 svgStroke"/><path stroke="#fff" stroke-linecap="round" stroke-width="3" d="M35.4942 190.696C34.2356 190.362 36.8687 185.564 37.0694 185.189 40.7836 178.249 44.7659 171.397 48.8831 164.72 55.7399 153.6 60.6441 141.357 68.3221 130.769 71.7004 126.11 75.8847 121.252 78.2742 115.92 78.5894 115.217 78.9463 114.576 79.6346 114.211 79.7874 114.13 79.5333 114.569 79.4198 114.705 76.5181 118.168 74.699 122.652 73.0118 126.857 68.0527 139.216 64.4091 152.18 61.1443 165.137 57.7135 178.754 55.1191 192.39 53.8055 206.418 52.6082 219.204 52.183 231.981 51.9081 244.812 51.8724 246.48 50.9904 250.322 51.8723 246.635 55.9522 229.577 59.0161 212.386 62.3436 195.139 64.9753 181.499 66.73 167.208 72.0452 154.352 72.6715 152.837 73.9644 151.011 74.1394 149.339 74.1771 148.98 74.4515 147.14 73.9425 148.314 71.8422 153.157 71.5377 159.465 70.9712 164.644 70.2363 171.363 69.9172 178.123 70.0404 184.885 70.1093 188.669 70.2612 192.503 70.8638 196.24 70.9758 196.935 71.0794 197.996 71.5798 198.557 72.7781 199.899 73.2704 195.27 73.6561 193.468 78.31 171.719 82.0552 149.815 87.5462 128.262 88.6593 123.894 89.8531 119.548 90.965 115.18 91.0349 114.905 91.8706 112.59 91.3767 112.141 90.9589 111.761 90.6164 112.85 90.5891 113.11 88.2836 135.122 88.1155 157.718 88.3517 179.891 88.3561 180.304 87.8711 187.582 89.4436 187.582 90.3108 187.582 91.0921 179.162 91.144 178.809 92.9151 166.771 95.2045 154.904 98.0891 143.111 98.693 140.642 99.2835 138.174 99.7358 135.668 99.8287 135.153 100.282 133.74 99.9327 134.111 99.3852 134.692 99.007 136.611 98.8946 137.187 97.3853 144.911 97.4871 153.119 97.4268 160.96 97.3235 174.393 97.2413 189.542 102.134 202.259 103.417 205.594 103.155 199.539 103.155 199.145 103.155 183.204 102.823 167.289 102.582 151.352 102.473 144.17 101.543 136.011 103.799 129.06 104.633 126.49 105.945 124.089 107.2 121.73 107.313 121.517 108.326 119.928 107.916 120.363 106.173 122.212 105.52 126.643 105.052 128.946 103.311 137.523 103.477 146.37 103.477 155.093 103.477 161.165 102.801 167.762 103.817 173.777 104.721 179.133 105.448 184.601 106.77 189.86 106.918 190.449 107.638 195.004 108.632 195.063 109.231 195.098 109.904 163.596 110.01 162.023 111.216 144.108 114.719 126.724 117.546 109.065 118.32 104.228 119.226 99.119 119.569 94.2165 119.669 92.7768 119.22 94.0212 118.96 94.7102 118.559 95.7727 118.62 96.911 118.62 98.0331 118.62 101.337 118.62 104.641 118.62 107.945 118.62 128.187 119.861 148.461 121.824 168.593 121.867 169.034 122.99 173.795 121.43 173.037 116.484 170.632 113.479 164.981 110.887 160.201 106.518 152.14 104.019 143.419 102.009 134.415 101.229 130.92 101.077 126.437 99.5389 123.174 99.3414 122.754 99.2885 123.584 99.2883 123.591 99.2412 126.293 99.3331 129.027 99.5031 131.718 101.383 161.478 106.618 190.875 107.952 220.697 108.166 225.494 108.31 230.288 108.31 235.09 108.31 235.652 108.593 236.953 108.095 236.761 107.259 236.439 106.532 234.913 106.144 234.217 103.255 229.042 101.614 222.986 100.541 217.127 97.3277 199.575 97.9315 181.227 97.9996 163.429 98.0228 157.355 98.9661 151.36 98.9661 145.314 98.9661 144.069 98.7518 143.214 98.0891 145.219 95.8145 152.1 95.4067 160.235 94.5628 167.359 92.6054 183.883 91.2186 200.463 89.8553 217.051 89.0792 226.493 88.1889 235.9 87.0987 245.306 86.7471 248.339 86.7069 251.803 85.9174 254.781 85.302 257.102 84.8282 252.327 84.7897 252.066 83.5074 243.386 80.9291 234.883 79.2408 226.28 77.1145 215.443 76.0905 204.786 76.0905 193.734 76.0905 189.904 76.4705 186.567 77.5045 182.91 77.7188 182.153 78.0236 181.236 78.0236 180.442M6.907 221.876C6.907 221.73 6.95785 221.15 7.08443 221.12 7.23156 221.085 7.2145 220.772 7.36325 220.693M15.8799 201.494C15.8365 201.5 15.703 202.402 15.6772 202.486 15.489 203.096 15.3377 203.672 15.0463 204.234 14.8149 204.68 14.6818 205.265 14.3478 205.647 14.0844 205.948 13.8931 206.3 13.6888 206.645 13.5758 206.836 13.446 206.996 13.3987 207.222 13.3859 207.283 13.4208 207.384 13.3874 207.437 13.3025 207.572 13.1043 207.719 12.9903 207.84 12.6315 208.221 12.344 208.678 11.9877 209.065 11.6402 209.442 11.4286 209.886 11.1907 210.341 11.0782 210.555 10.9246 210.985 10.9119 211.228 10.8963 211.524 10.6658 211.913 10.5316 212.169 10.4279 212.367 10.3769 212.585 10.2528 212.776 10.1316 212.961 9.99079 213.227 9.95148 213.457 9.9458 213.49 9.90931 213.915 9.89796 214.132 9.88328 214.412 9.56317 214.636 9.44171 214.861 9.30432 215.116 9.32555 215.385 9.19951 215.638 9.11498 215.807 8.98546 216.171 8.98546 216.364 8.98546 216.898 8.47851 217.336 8.47851 217.87 8.47851 218.101 8.45384 218.439 8.36586 218.649 8.27952 218.855 8.17435 219.52 8.17435 219.295M16.4376 197.676C16.6152 196.922 17.257 196.138 17.6881 195.549 18.6154 194.28 19.6887 193.141 20.6959 191.946 21.3282 191.195 22.0741 190.576 22.7237 189.848 22.7407 189.829 22.2794 190.077 22.1942 190.153 21.7037 190.593 21.3499 191.232 21.0001 191.79 19.9404 193.483 18.9142 195.202 17.8965 196.923 16.2918 199.637 14.6353 202.357 13.3114 205.241 13.3057 205.253 12.9461 205.895 13.0917 205.904 13.2477 205.914 12.8514 206.155 12.7763 206.251 12.5719 206.512 12.4385 206.836 12.2806 207.129 12.2156 207.25 11.958 207.493 12.0891 207.493 12.1576 207.493 12.5341 207.021 12.5341 206.926 12.5341 206.785 12.3939 207.062 12.382 207.087M16.6404 192.89C16.6404 193.125 16.5223 193.362 16.4629 193.589 16.4212 193.748 16.4199 194.096 16.3249 194.222 16.2554 194.314 16.263 194.466 16.232 194.581 16.199 194.703 16.1083 194.825 16.0799 194.96 16.0545 195.081 15.9618 195.228 15.8912 195.322 15.8144 195.424 15.8245 195.619 15.7673 195.74 15.6669 195.953 15.5251 196.644 15.5251 196.406 15.5251 196.008 16.0496 195.544 15.7532 195.229 15.6466 195.116 15.5758 194.984 15.5758 194.826 15.5758 194.786 15.6307 194.642 15.6265 194.718 15.6206 194.823 15.4782 194.993 15.4237 195.083 15.0851 195.641 15.2716 196.258 15.2716 196.869 15.2716 197.265 14.826 197.82 14.5872 198.214 14.3483 198.608 14.195 199.076 14.0155 199.504 13.934 199.699 13.7508 200.013 13.7508 200.23 13.7508 200.519 13.5572 200.765 13.5001 201.037 13.4487 201.282 13.342 201.596 13.2326 201.817 13.036 202.213 12.9051 202.64 12.7087 203.027 12.5822 203.276 12.4327 203.528 12.4327 203.807" class="colorStroke000 svgStroke"/><path stroke="#fff" stroke-linecap="round" stroke-width="3" d="M19.4286 187.458C19.369 188.28 18.9027 189.025 18.7301 189.812 18.6875 190.007 18.6311 190.236 18.5555 190.416 18.4253 190.727 17.729 190.576 17.705 190.792 17.6719 191.091 17.2929 191.51 17.0966 191.707 16.8544 191.949 16.7247 192.126 16.5643 192.433 16.2177 193.095 15.9424 193.779 15.6265 194.449 15.4855 194.748 15.2412 195.065 15.173 195.39 15.1381 195.557 14.9807 195.668 14.9168 195.821 14.8261 196.037 14.6471 196.307 14.5112 196.493 14.4044 196.639 14.2577 197.161 14.2577 196.977M12.0778 204.183C12.0778 204.716 11.6723 205.049 11.6723 205.581 11.6723 205.795 11.5428 205.916 11.5202 206.119 11.5056 206.251 11.4088 206.526 11.3569 206.657 11.2571 206.908 11.2113 207.234 11.1259 207.505 11.0391 207.782 10.9351 208.033 10.8724 208.312 10.7746 208.748 10.7361 209.265 10.5457 209.668 10.4642 209.841 10.3921 210.022 10.3148 210.206 10.239 210.387 10.3135 210.626 10.2416 210.798 10.1716 210.965 10.1315 211.114 10.0613 211.282 9.9997 211.429 10.0295 211.685 9.9374 211.808 9.7306 212.082 9.837 212.53 9.70646 212.841 9.66006 212.952 9.60019 213.257 9.59381 213.379 9.584 213.566 9.49242 213.72 9.49242 213.917M28.9085 164.28C28.2267 165.051 27.785 166.089 27.382 167.041 26.9427 168.077 26.6105 169.147 26.3343 170.243 26.2523 170.569 26.1204 170.811 25.9794 171.11 25.5407 172.041 25.009 172.899 24.4248 173.742 24.1864 174.086 24.0598 174.474 23.8418 174.82 23.6864 175.068 23.6001 175.14 23.4053 175.4 23.1815 175.698 22.9177 176.065 22.7744 176.407 22.6345 176.741 22.4956 177.072 22.3576 177.402 22.2794 177.589 22.1654 177.829 22.0534 177.993 21.8697 178.263 21.8587 178.511 21.7239 178.791 21.4075 179.448 21.1438 180.223 20.7072 180.802 20.6012 180.942 20.5077 181.254 20.4425 181.423 20.3502 181.662 20.2247 181.935 20.1101 182.161 19.5371 183.29 19.1901 184.58 18.578 185.684 18.4282 185.954 18.2083 186.269 18.164 186.598 18.12 186.925 18.0408 187.26 17.8965 187.566 17.6572 188.074 17.4672 188.658 17.3388 189.203 17.243 189.61 17.0103 189.932 16.9417 190.332 16.8953 190.603 16.7509 190.881 16.6404 191.115" class="colorStroke000 svgStroke"/><path stroke="#fff" stroke-linecap="round" stroke-width="23" d="M32.4726 198.353C32.4726 195.249 33.2761 192.24 34.0951 189.279C34.3488 188.362 34.3798 185.734 35.0918 185.087C35.5326 184.686 35.9551 184.262 36.4247 183.857C37.8711 182.611 38.708 180.474 39.7741 178.829C41.496 176.172 43.8319 174.229 45.4183 171.452C47.6031 167.628 50.3116 164.255 52.094 160.19C53.4057 157.199 55.0391 154.865 55.5825 151.535C56.1057 148.328 56.5919 145.136 57.8193 142.031C58.7693 139.628 60.6107 137.587 61.9336 135.404C63.593 132.666 65.4699 130.016 66.6622 126.995C67.3908 125.149 67.8623 123.198 68.5629 121.339C69.383 119.165 70.6241 117.409 71.5879 115.364C72.1844 114.098 73.4289 112.357 73.5697 110.938C73.6147 110.484 73.9831 108.109 74.2999 107.84C74.5465 107.631 74.397 107.011 74.8214 106.955C75.1079 106.917 75.3703 106.475 75.6558 106.34C75.9007 106.224 76.3533 105.928 76.2701 106.414C76.0228 107.857 76.605 108.45 77.4175 109.623C78.6954 111.466 80.582 113.324 81.5434 115.364C81.7763 115.858 81.7057 116.377 81.7057 116.926C81.7057 117.898 81.4951 118.8 81.2769 119.741C80.6988 122.232 80.3458 124.769 79.9093 127.29C77.9737 138.469 75.8286 149.6 73.7783 160.756C72.5412 167.487 71.4716 174.336 69.7219 180.944C69.0871 183.341 68.1492 185.645 67.5662 188.05C67.282 189.222 66.9089 190.42 66.7318 191.615C66.5899 192.573 66.3945 192.482 66.5695 191.517C66.8626 189.9 67.6505 188.364 68.2964 186.882C70.9926 180.696 74.5746 174.904 77.5218 168.846C82.4033 158.811 87.2433 148.617 91.302 138.171C93.3118 132.997 95.2951 127.59 96.2624 122.065C97.0529 117.549 97.2536 112.98 97.7227 108.43C97.8953 106.756 96.2263 111.009 96.1465 111.184C95.1071 113.46 94.3797 115.67 93.9328 118.18C92.5269 126.073 92.6094 134.264 92.5652 142.265C92.5303 148.596 92.3203 155.001 92.7391 161.321C92.9654 164.737 93.451 168.066 94.7557 171.206C95.0896 172.01 95.6967 173.024 95.8799 173.899C96.0633 174.774 94.1986 172.784 94.0835 172.632C92.972 171.169 91.1367 169.599 90.5139 167.813C90.089 166.594 90.2315 165.074 90.2589 163.805C90.3569 159.254 91.9594 154.916 93.6663 150.797C96.7375 143.385 100.634 136.367 104.201 129.22C107.454 122.704 111.006 116.123 113.438 109.192C113.974 107.665 114.627 106.038 115.049 104.471C115.256 103.703 114.271 105.84 113.925 106.549C111.006 112.529 111.854 119.922 112.001 126.429C112.106 131.059 112.638 135.565 113.276 140.138C113.708 143.234 113.901 146.357 114.47 149.432C115.156 153.146 116.208 157.016 117.541 160.534C117.976 161.682 118.476 162.86 118.793 164.051C119.375 166.241 120.126 168.377 120.705 170.567C120.801 170.928 121.957 174.164 120.798 173.309C120.017 172.733 119.374 171.974 118.584 171.403C117.382 170.534 115.975 169.956 114.62 169.411C112.461 168.542 110.374 167.78 108.292 166.706C107.187 166.136 106.531 165.672 106.531 164.272C106.531 161.895 106.246 159.518 106.16 157.141C106.04 153.821 105.944 150.339 106.508 147.06C107.118 143.508 108.613 140.237 110.24 137.101C112.643 132.47 115.362 128.093 117.576 123.343C120.261 117.583 123.014 111.898 126.141 106.389C127.475 104.038 129.003 101.742 130.162 99.2829C130.772 97.9893 129.149 98.0439 128.853 98.9878" class="colorStroke000 svgStroke"/><path stroke="#fff" stroke-linecap="round" stroke-width="23" d="M144.499 185.738C144.499 186.527 143.84 184.323 143.456 183.648 142.426 181.84 141.539 179.943 140.581 178.091 139.102 175.23 138.142 172.141 136.884 169.178 136.404 168.045 135.593 167.082 135.111 165.932 134.897 165.42 134.333 164.996 133.964 164.604 133.254 163.851 132.671 162.883 132.028 162.059 131.351 161.19 130.574 160.35 130 159.403 129.852 159.159 129.711 158.792 129.467 158.641 128.818 158.24 128.861 157.324 128.644 156.576 126.832 150.315 125.076 144.303 124.704 137.691 124.5 134.066 124.455 130.167 124.692 126.528 124.996 121.851 124.931 117.216 125.144 112.536 125.244 110.342 125.932 108.128 125.932 105.959 125.932 105.737 125.932 104.762 125.932 104.963M32.264 182.419C32.3799 181.066 33.0974 179.458 33.62 178.226 33.958 177.429 33.9484 176.576 34.3038 175.78 34.8072 174.652 35.7928 173.553 36.5406 172.583 37.8058 170.943 38.6859 168.967 40.0986 167.469 40.9866 166.527 42.5652 165.432 43.1119 164.272M42.9033 164.493C42.9713 163.844 44.0276 162.895 44.3173 162.28 44.8403 161.171 45.5176 160.043 45.8355 158.862 45.9218 158.542 46.5593 158.082 46.7743 157.854 47.2415 157.359 47.7132 156.627 48.223 156.207 49.368 155.262 50.374 154.718 51.3522 153.441 52.0871 152.481 52.5528 151.776 52.9632 150.6 53.2672 149.73 54.3332 148.864 54.9103 148.203 55.9289 147.036 56.7685 145.471 57.9352 144.465 58.8706 143.659 59.9462 142.637 60.427 141.429 62.2761 136.783 62.013 131.628 63.5562 126.921 63.8355 126.069 63.5061 125.543 64.2748 125.31 64.8147 125.147 65.0788 123.95 65.4337 123.552 65.9484 122.976 67.2366 121.94 67.5199 121.339" class="colorStroke000 svgStroke"/><path stroke="#fff" stroke-linecap="round" stroke-width="12" d="M38.731 150.773C38.8046 149.992 39.8217 149.379 40.1797 148.683 40.4473 148.162 41.1171 147.906 41.5473 147.551 42.8591 146.469 44.6039 145.624 45.8239 144.33 47.4101 142.648 48.5158 140.248 49.7876 138.33 50.9285 136.611 52.0779 134.252 53.7513 133.068M72.7352 93.6765C72.5742 95.3845 72.6182 97.4877 71.5995 98.8771 70.087 100.94 68.5274 103.004 67.0099 105.074 66.6329 105.588 66.5166 106.36 66.2218 106.955 64.4909 110.443 62.3799 113.494 60.5892 116.913 60.0517 117.94 59.082 118.75 58.5494 119.79 58.1267 120.616 57.5527 121.611 56.9848 122.348 56.7389 122.666 56.0461 124.329 56.0461 123.884 56.0461 122.511 55.7187 124.124 55.4666 124.659 55.105 125.426 54.9777 126.386 54.4235 127.044 53.9225 127.639 53.3412 128.892 53.137 129.65 52.832 130.783 52.291 134.246 52.291 133.068M133.234 92.1274C133.234 96.3674 134.929 100.374 136.258 104.299 136.991 106.46 138.032 109.086 138.032 111.43 138.032 113.541 137.871 115.52 137.452 117.577 137.269 118.477 137.45 119.44 137.302 120.356 137.073 121.761 136.831 123.137 136.768 124.561 136.686 126.441 136.363 132.074 136.363 130.191 136.363 128.273 136.342 132.035 136.374 132.527 136.575 135.618 136.989 138.719 136.989 141.822 136.989 144.079 137.764 146.099 137.823 148.338 137.87 150.134 138.546 151.489 139.33 152.986 139.99 154.247 141.289 155.644 141.37 157.19 141.435 158.433 141.578 159.82 141.578 161.174" class="colorStroke000 svgStroke"/><path stroke="#fff" stroke-linecap="round" stroke-width="12" d="M136.154 122.003C136.154 123.811 136.154 125.618 136.154 127.425C136.154 128.39 135.639 132.906 136.363 133.29" class="colorStroke000 svgStroke"/><path stroke="#fff" stroke-linecap="round" stroke-width="4" d="M134.744 85.8829C135.1 86.3858 135.317 87.1717 135.565 87.7419C136.1 88.974 136.505 90.2945 136.932 91.5727C137.082 92.0199 137.27 92.4841 137.591 92.8246C137.71 92.9507 137.663 93.1747 137.722 93.3458C138.259 94.8992 139.594 95.5739 140.392 96.8435C140.524 97.0544 140.353 96.3344 140.285 96.0913C140.027 95.1638 139.66 94.2724 139.439 93.335C139.239 92.4859 138.938 91.6971 138.938 90.8152C138.938 90.3351 138.756 89.8655 138.756 89.3699C138.756 88.8614 138.664 88.3801 138.664 87.8655C138.664 87.4067 138.474 87.2199 138.3 86.85C138.063 86.348 138.083 85.7191 137.915 85.1844C137.769 84.7187 137.463 83.985 137.135 83.637C136.87 83.3557 136.492 82.8535 136.314 82.498C136.224 82.3163 136.062 82.0456 135.95 81.8962C135.838 81.7476 136.018 81.3375 135.838 81.3375" class="colorStroke000 svgStroke"/><path stroke="#fff" stroke-linecap="round" stroke-width="4" d="M141.308 130.757C141.535 130.727 141.394 129.049 141.399 128.823C141.419 127.919 141.648 126.988 141.926 126.136C141.989 125.943 141.95 126.323 141.951 126.356C142.008 127.619 142.363 128.867 142.585 130.101C143.798 136.862 144.238 143.782 144.722 150.636C144.763 151.221 144.845 151.812 144.864 152.399C144.869 152.569 144.864 152.356 144.864 152.313C144.864 150.73 144.298 149.238 144.023 147.692C143.253 143.364 142.88 138.952 142.539 134.566C142.399 132.766 142.311 130.995 142.311 129.188C142.311 128.097 142.273 127.002 142.539 125.937C142.828 124.778 143.179 122.644 143.385 121.129C143.762 118.355 143.514 115.581 143.496 112.801C143.49 111.793 143.536 110.777 143.496 109.771C143.475 109.228 143.037 108.577 142.878 108.083C142.366 106.489 142.398 104.853 142.291 103.194C142.229 102.24 142.006 101.33 141.815 100.4C141.78 100.233 141.697 99.229 141.399 99.229C141.201 99.229 141.319 98.9149 141.288 98.6273C141.213 97.9293 141.056 97.2543 140.944 96.5695C140.792 95.6431 140.762 94.7484 140.665 93.8239C140.606 93.2624 140.318 92.7469 140.305 92.1476C140.293 91.5476 140.123 91.0184 140.123 90.4176C140.123 90.1242 140.207 88.9776 139.758 88.9776" class="colorStroke000 svgStroke"/><path stroke="#fff" stroke-linecap="round" d="M137.662 79.5C137.662 80.4264 138.409 81.4186 138.892 82.1595 139 82.3248 139.164 82.5377 139.206 82.7398 139.291 83.1442 139.124 82.5055 139.075 82.4013 138.858 81.9422 138.774 81.4201 138.553 80.9506 138.425 80.6793 138.237 80.4443 138.097 80.1769 138.059 80.1033 137.506 79.6393 137.702 79.6988 137.98 79.7831 137.868 80.6437 137.895 80.8432 137.999 81.6347 138.174 82.3835 138.371 83.1535 138.64 84.2074 138.636 84.9347 139.171 85.8883 139.302 86.1216 139.641 87.2095 139.895 87.3174 139.99 87.3577 139.782 85.7926 139.753 85.6948 139.516 84.8752 139.211 84.0984 138.958 83.2932 138.732 82.5739 139.395 83.3376 139.576 83.5833 139.809 83.899 140.123 84.2602 140.285 84.6256 140.322 84.708 140.149 84.3878 140.128 84.2872 140.099 84.1472 139.789 82.5088 139.713 82.5088 139.626 82.5088 139.667 83.5601 139.667 83.68 139.667 84.3845 139.759 84.9778 139.986 85.6465 140.129 86.0679 140.305 86.5099 140.397 86.9467 140.437 87.1376 140.435 87.4501 140.508 87.6237 140.695 88.0693 140.685 87.9289 140.67 87.5055 140.659 87.1916 140.548 86.6098 140.442 86.3181 140.348 86.0578 140.207 85.4428 140.31 85.1683 140.446 84.81 140.603 85.8925 140.852 86.173 141.056 86.4021 141.308 86.7019 141.308 87.0434 141.308 87.2902 141.491 88.0048 141.491 87.758 141.491 87.363 141.196 87.0869 141.035 86.7533 140.909 86.4948 140.694 86.2205 140.599 85.9581 140.538 85.7889 140.397 85.2771 140.397 85.4584 140.397 86.274 141.066 87.1153 141.379 87.8171 141.548 88.1959 141.675 88.627 141.759 89.026 141.789 89.1715 141.764 89.3499 141.764 89.4988 141.764 89.6403 141.771 89.2156 141.764 89.0744 141.737 88.5642 141.429 87.9773 141.217 87.527 141.094 87.2665 140.834 86.5445 140.624 86.3664 140.539 86.2936 140.397 85.613 140.397 85.496 140.397 85.4826 140.61 85.9594 140.67 86.0548 140.794 86.2528 140.941 86.3845 141.035 86.6082 141.164 86.9178 141.474 87.09 141.627 87.3819 141.78 87.6741 141.764 87.96 141.764 88.3007 141.764 88.4514 141.855 88.5039 141.855 88.6445 141.855 88.8349 141.801 88.2664 141.744 88.0858 141.605 87.6437 141.359 87.2583 141.166 86.85 141.04 86.5811 140.821 86.434 140.756 86.1247 140.706 85.8829 140.617 85.2777 140.67 85.7862 140.693 86.0052 140.841 86.1434 140.852 86.3664 140.864 86.5975 140.936 86.9186 140.989 87.1455 141.19 87.9997 141.26 88.906 141.42 89.7728 141.741 91.5159 141.767 93.3168 142.108 95.049 142.177 95.3961 142.038 94.8851 142.038 94.7588 142.038 94.406 142.038 94.0532 142.038 93.7004 142.038 92.36 141.946 90.9406 141.946 89.6546 141.946 89.2391 141.946 88.9177 141.946 89.5579 141.946 90.0057 141.914 90.459 142.129 90.8581 142.21 91.0082 142.585 91.5077 142.585 91.4921 142.585 91.1065 142.493 90.7436 142.493 90.38 142.493 90.0582 142.475 89.8031 142.397 89.5149 142.379 89.4482 142.226 89.3025 142.169 89.2678 141.955 89.1378 142.134 88.9609 142.017 88.8057 141.884 88.6294 141.959 88.6077 141.855 88.9024 141.695 89.3583 141.658 89.8849 141.602 90.3638 141.371 92.3518 141.899 94.3869 142.448 96.2632 142.78 97.3972 143.014 98.5672 143.354 99.7018 143.393 99.8291 143.496 100.251 143.496 99.8899 143.496 99.3472 143.496 98.8046 143.496 98.2619 143.496 97.1239 143.142 95.9155 142.949 94.7911 142.868 94.3152 142.676 93.9367 142.676 93.4478 142.676 92.8604 142.676 92.273 142.676 91.6856 142.676 91.4007 142.706 91.4185 142.655 91.707 142.586 92.1049 142.585 92.4849 142.585 92.8891 142.585 93.3628 142.535 94.0109 142.858 94.3935 143.199 94.7974 143.365 95.2833 143.501 95.7904 143.617 96.2209 143.607 94.8777 143.491 94.4472 143.408 94.1371 143.283 93.7393 143.152 93.4264 142.926 92.8881 142.858 92.0385 142.858 91.4921M21.8545 201.394C20.9115 200.143 21.5517 196.831 21.5517 195.289 21.5517 194.052 21.5537 192.875 22.0228 191.737 22.9572 189.471 21.9366 190.858 21.2656 192.237 20.4845 193.843 20.161 195.722 19.5662 197.413 18.6238 200.093 17.5952 202.723 16.5881 205.374 15.9862 206.958 15.5037 208.589 14.9055 210.175 14.6177 210.938 14.5661 210.033 14.6194 209.693 15.0477 206.968 16.3118 203.651 17.3284 201.09 18.3809 198.438 19.4925 195.842 20.6262 193.237 20.8 192.837 21.3013 192.537 21.0301 193.272 20.5549 194.56 19.7656 195.692 19.297 197.003 19.0702 197.637 18.1999 198.558 18.8932 199.073 19.6083 199.604 20.2177 196.326 20.2729 196.003 20.5652 194.298 20.3041 192.521 20.5758 190.791 21.1835 186.923 20.4407 194.573 20.4075 195.218 20.281 197.677 20.3402 205.071 20.3402 202.607 20.3402 201.263 20.3402 199.918 20.3402 198.573 20.3402 197.049 20.7379 195.568 21.0132 194.075 21.6441 190.655 20.782 195.455 20.7104 196.467 20.5766 198.36 20.6431 204.059 20.6431 202.161 20.6431 200.941 20.6431 199.722 20.6431 198.502 20.6431 195.457 20.9459 192.347 20.9459 189.363 20.9459 187.965 20.9459 186.567 20.9459 185.169 20.9459 184.739 21.2488 183.489 21.2488 183.919 21.2488 184.521 20.8722 185.264 20.6431 185.811 20.5361 186.067 19.3819 188.413 19.4989 188.399 20.2068 188.316 20.9173 185.585 20.9459 185.008 21.0033 183.853 21.2402 184.932 20.9459 185.722 20.7481 186.253 20.0373 187.944 20.0373 187.9 20.0373 187.341 19.9779 185.8 20.4075 185.401 20.5432 185.275 20.6314 188.136 20.6431 188.471 20.6784 189.483 20.9459 189.999 20.9459 188.542 20.9459 186.216 21.8545 185.035 21.8545 188.203 21.8545 188.998 22.3547 189.818 22.1406 190.613 21.9383 191.364 21.5517 189.136 21.5517 188.863 21.5517 188.146 21.392 187.257 22.3088 187.257 23.1071 187.257 22.6161 188.454 22.9146 189.024 23.3889 189.93 22.2078 190.166 21.7199 189.649 21.4106 189.321 21.757 187.613 21.5517 188.756 21.1764 190.846 20.4678 193.23 19.7345 195.218 19.2771 196.458 18.7919 196.527 17.9846 197.288 17.7906 197.471 17.9173 196.704 17.9173 196.503 17.9173 194.824 17.9333 193.152 18.2875 191.505 18.5352 190.353 19.2203 187.107 20.3402 186.365 20.6025 186.191 21.0771 184.824 20.6431 185.079 19.8102 185.57 18.3167 188.161 18.2202 189.185 18.1439 189.994 18.7348 187.267 19.1961 186.615 19.5385 186.13 20.6067 185.342 20.6431 184.687 20.7199 183.301 19.3943 186.745 19.3138 187.096 19.0275 188.345 19.1288 189.675 19.1288 190.952 19.1288 191.523 19.7726 188.102 19.8859 187.453 20.0129 186.726 19.8716 185.534 20.4916 185.008 20.85 184.704 21.1793 184.305 21.4002 183.884 22.068 182.608 20.6601 185.636 20.5253 185.954 20.3415 186.387 19.7454 188.217 19.7513 188.185 19.97 187.025 20.8601 185.558 21.4002 184.526 21.5459 184.248 20.2955 187 20.1046 187.721 19.4043 190.366 19.4316 193.44 19.4316 196.182 19.4316 197.968 20.0008 192.648 20.0373 190.863 20.0511 190.193 20.1561 188.434 20.5758 188.935 21.3825 189.898 20.0266 193.527 21.619 190.149 22.4455 188.395 23.5361 186.67 24.5803 185.008" class="colorStroke000 svgStroke"/><path stroke="#fff" stroke-linecap="round" stroke-width="4" d="M20.0374 188.863C20.0374 185.83 21.7187 183.851 22.7631 181.081 24.2403 177.164 24.5155 172.096 26.7004 168.551 27.2662 167.633 28.2285 166.041 28.9718 165.41 29.819 164.691 30.0879 163.22 30.5703 162.197 31.7367 159.722 33.6079 157.597 34.6421 155.129 35.1386 153.944 35.5295 153.069 36.2574 152.076 36.7171 151.449 37.1945 151.034 37.5362 150.309 38.1206 149.069 36.7245 149.196 36.6949 149.667 36.6897 149.749 37.2498 148.097 37.452 147.596 37.9058 146.473 38.7257 145.527 39.1178 144.383 39.5545 143.11 40.63 141.961 41.1705 140.671 42.4325 137.659 44.6733 135.46 46.151 132.639 47.4415 130.175 50.0127 128.26 50.6098 125.41 50.6431 125.251 50.6918 124.803 50.5593 124.678 50.3917 124.52 50.0209 125.344 50.0209 125.106 50.0209 124.057 50.8399 123.039 51.1651 122.108 51.6116 120.829 52.4186 119.11 53.2178 118.02 53.9727 116.991 54.3719 115.84 54.934 114.647 55.5722 113.293 56.7463 112.279 57.4411 110.952 58.4594 109.008 60.1621 106.745 61.6644 105.151 62.5698 104.191 63.0268 102.778 63.9527 101.796 64.7826 100.915 65.4065 99.2766 66.2242 98.5827 67.0283 97.9002 67.1991 96.5155 67.8899 95.6911 68.6899 94.7364 69.7183 93.1179 70.3128 92.0142 71.1757 90.4124 68.5415 92.325 69.1687 91.5858 69.7772 90.8685 70.7301 89.7632 70.9354 88.7835 71.2334 87.3609 74.0846 84.9787 75.024 83.9821 76.156 82.7813 77.7801 81.1334 78.4902 79.6269M24.1288 174.932C23.9898 175.064 23.7892 175.173 23.6328 175.283M22.7233 177.213C22.7233 177.009 22.6635 176.855 22.5579 176.687" class="colorStroke000 svgStroke"/><path stroke="#fff" stroke-linecap="round" stroke-width="4" d="M23.1366 175.546C23.2079 174.866 23.8765 174.351 24.1288 173.748C24.3499 173.221 24.7358 172.312 25.1624 171.95C25.4688 171.69 25.5524 171.258 25.8789 170.981C26.4582 170.489 27.5532 169.955 27.9322 169.231C28.0372 169.031 28.3365 168.623 28.3365 168.398C28.3365 168.248 27.8334 168.711 27.8082 168.744C27.5796 169.04 27.0607 169.386 26.7104 169.143C26.2737 168.841 26.946 168.117 27.1238 167.74C27.3891 167.177 27.5615 166.634 27.7669 166.035C28.0414 165.234 28.4266 164.453 28.9428 163.793C29.5062 163.073 30.1035 162.51 30.5367 161.693C30.7333 161.322 30.9319 161.048 31.0742 160.635C31.1056 160.544 31.4099 159.753 31.1614 160.148C30.4294 161.313 32.4582 157.705 32.9942 156.425C33.1316 156.097 33.1462 155.71 33.2698 155.373C33.4894 154.774 33.8107 154.36 34.2115 153.882C34.5471 153.481 34.7122 153.173 34.7122 152.654C34.7122 152.069 34.7122 151.484 34.7122 150.9C34.7122 150.71 34.7122 150.519 34.7122 150.329C34.7122 149.848 34.2776 150.328 34.0232 150.544C33.5626 150.935 33.3893 151.615 33.3893 152.215C33.3893 152.664 33.2221 152.904 33.1366 153.312C33.0543 153.705 32.8105 154.135 32.8105 154.54C32.8105 154.766 32.6781 155.263 32.5441 155.441C32.1696 155.938 32.0084 156.739 31.5886 157.234C31.3674 157.495 31.1637 158.044 31.0558 158.374C30.9214 158.786 30.6553 159.148 30.5735 159.539C30.4407 160.173 30.0322 161.011 29.5445 161.425C29.2877 161.643 29.0832 162.133 28.805 162.302C28.5709 162.444 28.53 162.891 28.364 163.111C28.0351 163.547 28.4407 163.502 28.7177 163.267C28.82 163.18 28.8899 163.05 29.0071 162.984C29.2827 162.829 28.8822 162.959 29.0071 163.091" class="colorStroke000 svgStroke"/><path stroke="#fff" stroke-linecap="round" stroke-width="4" d="M30.2764 163.296C30.1696 163.296 30.1133 163.351 30.0457 163.437 29.8365 163.703 29.6265 163.966 29.4024 164.218 29.1311 164.524 28.8583 164.822 28.6195 165.157 28.5235 165.292 28.4217 165.426 28.2881 165.521 27.8834 165.81 27.5298 166.162 27.1083 166.425 26.9479 166.526 26.7764 166.571 26.6822 166.749 26.5618 166.976 26.9424 166.595 26.9978 166.554 27.0355 166.527 27.0738 166.502 27.1034 166.467 27.1187 166.448 27.0745 166.449 27.0694 166.443 27.0576 166.431 27.0646 166.39 27.0646 166.374 27.0646 166.208 27.0999 166.043 27.1083 165.892 27.1096 165.869 27.1459 165.837 27.1629 165.823 27.182 165.807 27.0836 165.968 27.0634 165.997 26.9194 166.203 26.7472 166.403 26.6385 166.634 26.492 166.945 26.4256 167.292 26.2574 167.593 26.1761 167.739 26.1496 167.879 26.0923 168.027 25.9892 168.294 25.9039 168.564 25.7536 168.808 25.672 168.94 25.5832 169.056 25.5133 169.196 25.4429 169.338 25.3282 169.46 25.262 169.601 25.2158 169.699 25.1216 169.831 25.0994 169.937 25.0887 169.988 25.0021 170.185 25.0545 170.018M70.8455 88.66C70.7345 88.7671 70.5999 88.8276 70.4733 88.9031 70.2863 89.0147 70.4526 88.9303 70.4526 89.0073 70.4526 89.134 70.2348 89.2754 70.1798 89.3791 70.1145 89.5022 70.0778 89.6395 70.0064 89.7586 69.933 89.881 69.9008 90.0585 69.8585 90.1934 69.7153 90.649 69.5659 91.1077 69.3504 91.5312 69.3264 91.5783 69.0993 91.9582 69.0993 91.912 69.0993 91.8997 69.1003 91.9434 69.1115 91.9467 69.1269 91.9514 69.1489 91.949 69.1648 91.948 69.1943 91.9463 69.2481 91.9249 69.1866 91.9249M69.7105 89.4704C69.4526 90.0598 69.2408 90.6544 68.8507 91.1582 68.7686 91.2642 68.7168 91.3934 68.6846 91.53 68.649 91.6813 68.5797 91.8176 68.5367 91.966 68.4681 92.2023 68.4149 92.4382 68.3135 92.6658 68.2503 92.808 68.1744 93.0502 68.0637 93.1508 67.9814 93.2257 67.928 93.4739 67.8418 93.6075 67.5795 94.0142 67.3625 94.4531 67.0488 94.8193 66.9922 94.8852 66.9478 94.9966 66.8838 95.0508 66.805 95.1178 66.7442 95.286 66.6874 95.3737 66.5431 95.5964 66.4008 95.8197 66.2678 96.0504 66.1399 96.2722 66.04 96.5018 65.8955 96.7128 65.84 96.794 65.7753 96.8599 65.733 96.9495 65.661 97.1024 65.6523 97.2984 65.5899 97.459 65.5121 97.6596 65.8058 97.0903 65.9174 96.9084 66.1873 96.4683 66.4839 96.0577 66.7965 95.6516 66.9565 95.4438 67.1164 95.2293 67.267 95.0135 67.3592 94.8815 67.4458 94.7559 67.495 94.5993 67.5649 94.377 67.6516 94.1623 67.7072 93.9394 67.7561 93.7435 67.7432 93.5557 67.5496 93.4711 67.5142 93.4557 67.5291 93.5667 67.5278 93.592 67.5237 93.6692 67.4121 93.6517 67.3798 93.7078 67.3478 93.7634 67.0346 93.9022 67.1785 93.8004" class="colorStroke000 svgStroke"/><path stroke="#fff" stroke-linecap="round" stroke-width="4" d="M68.9684 90.5819C68.9244 90.5877 68.9486 90.8036 68.932 90.8533 68.8297 91.1591 68.6458 91.4303 68.5015 91.7139 68.4031 91.9073 68.3092 92.0986 68.2214 92.2954 68.178 92.3925 68.0791 92.4456 68.0298 92.5372 67.9941 92.6033 67.917 92.7257 67.8551 92.7585M66.4364 93.43C66.4251 93.5736 66.3507 93.7199 66.3066 93.8545 66.2485 94.0318 66.2008 94.2261 66.1102 94.3883 66.0044 94.5778 65.9271 94.7718 65.8519 94.9762 65.8113 95.0865 65.7987 95.1912 65.7464 95.2978 65.6217 95.5521 65.4995 95.8027 65.3899 96.0658 65.2531 96.3939 65.0703 96.6932 64.923 97.0151 64.855 97.1637 64.7992 97.3228 64.7435 97.477 64.7004 97.5965 64.6357 97.6861 64.5641 97.796 64.3764 98.0838 64.1562 98.3403 63.9589 98.6193 63.6843 99.0078 63.4833 99.4598 63.2447 99.8722 63.1178 100.092 63.0009 100.375 62.8348 100.562 62.7903 100.612 62.7427 100.658 62.6929 100.701 62.602 100.778 62.753 100.629 62.7681 100.586 62.8083 100.473 62.917 100.389 62.9658 100.272 62.9928 100.208 63.0531 100.165 63.0531 100.093 63.0531 100.018 63.0531 99.7916 63.0531 99.8671M62.9221 98.8946V100.029M61.9018 100.486C61.9018 100.76 61.7436 100.997 61.7436 101.27 61.7436 101.667 61.3232 102.235 61.134 102.56 60.7995 103.134 60.4478 103.681 60.0849 104.235 59.9498 104.442 59.8329 104.664 59.7391 104.894 59.6987 104.994 59.5926 105.081 59.5808 105.187 59.5585 105.388 59.3769 105.611 59.3171 105.815 59.223 106.135 59.0504 106.559 58.8687 106.837 58.6493 107.174 58.4805 107.524 58.2357 107.841 58.1378 107.969 57.9851 108.058 57.8929 108.18 57.7543 108.364 57.7099 108.397 57.8811 108.152 58.0729 107.879 58.2476 107.527 58.4995 107.313 58.5236 107.293 58.6049 107.107 58.6314 107.058 58.6687 106.989 58.8237 106.903 58.8951 106.865M30.6558 164.36C30.6558 163.956 30.8744 163.222 30.5983 162.895 30.3163 162.56 30.3681 162.027 30.3681 161.613 30.3681 161.436 30.4469 161.011 30.3617 160.853 30.2661 160.676 30.3102 161.019 30.3073 161.03 30.2519 161.235 30.0312 161.357 29.8502 161.369 29.7554 161.375 29.735 161.491 29.62 161.491 29.4084 161.491 29.7399 161.21 29.8054 161.138 30.2377 160.662 30.313 160.131 30.6814 159.629 30.9608 159.248 31.1321 158.679 31.2888 158.222 31.4658 157.705 31.7703 157.107 32.1391 156.716 32.2853 156.561 32.318 156.327 32.4109 156.15 32.5112 155.958 32.679 155.793 32.7849 155.597 32.9334 155.321 32.4243 155.472 32.3054 155.522 32.0886 155.613 32.0644 155.69 31.9345 155.827 31.8413 155.926 31.754 156.17 31.6916 156.302" class="colorStroke000 svgStroke"/><path stroke="#fff" stroke-linecap="round" stroke-width="4" d="M29.5625 161.796C29.5625 161.643 29.5625 161.491 29.5625 161.338C29.5625 161.23 29.4857 161.018 29.5177 160.941C29.5791 160.795 29.6704 160.699 29.7351 160.545C29.7701 160.461 29.8773 160.259 29.9365 160.209C30.1174 160.055 30.2177 159.667 30.3105 159.446C30.45 159.113 30.6944 158.746 30.9307 158.486C31.1318 158.265 31.2117 157.937 31.4166 157.72C31.5316 157.598 31.6033 157.433 31.7203 157.309C31.7988 157.226 32.184 156.913 31.9185 156.913C31.5303 156.913 31.6844 156.824 31.7939 156.499C31.8703 156.272 32.0655 156.173 32.1519 155.966C32.2597 155.709 32.503 155.508 32.7146 155.353C32.8356 155.264 32.8941 155.084 33.0151 155.02" class="colorStroke000 svgStroke"/><path stroke="#fff" stroke-linecap="round" stroke-width="4" d="M30.9754 157.591C30.9754 157.539 30.9626 157.543 30.9935 157.522 31.0469 157.484 31.0854 157.415 31.1243 157.363 31.1956 157.267 31.2726 157.176 31.3455 157.082 31.4534 156.942 31.5687 156.796 31.6935 156.673 31.717 156.65 31.853 156.542 31.8309 156.492 31.7958 156.413 31.6003 156.522 31.5709 156.551 31.5259 156.596 31.435 156.681 31.4204 156.751 31.4047 156.826 31.3494 156.891 31.3192 156.963 31.2955 157.02 31.257 157.084 31.2411 157.143 31.2347 157.167 31.2343 157.16 31.2567 157.132 31.2955 157.084 31.3376 157.052 31.3883 157.019 31.4181 157 31.452 156.969 31.4755 156.944 31.6323 156.778 31.7965 156.623 31.8852 156.398 31.9425 156.252 32.0266 156.086 32.0266 155.926 32.0266 155.75 32.0328 155.593 32.0859 155.424M39.5764 145.026C39.2485 145.2 39.0139 145.54 38.6287 145.562 38.4502 145.573 38.159 145.568 37.9969 145.644 37.6428 145.811 37.2423 145.725 36.9861 146.065 36.9191 146.154 36.6841 146.336 36.5754 146.4 36.4885 146.451 36.1411 146.828 36.3578 146.627 37.054 145.981 38.1452 145.287 38.4883 144.341 38.6078 144.011 38.7905 143.786 38.9446 143.485 39.3826 142.629 40.0575 141.776 40.6996 141.087 41.0484 140.712 41.4189 140.341 41.6473 139.865 42.1267 138.866 42.6853 137.978 43.297 137.058 43.9195 136.122 44.6897 135.149 44.8203 133.971 44.8807 133.427 45.1125 132.923 45.2029 132.396 45.2769 131.965 45.6359 131.472 45.8347 131.112 46.1606 130.521 46.5413 129.964 46.8737 129.376 47.2366 128.735 47.5371 128.066 47.9372 127.448 48.3589 126.796 48.4194 126.119 48.6743 125.404 48.8344 124.954 48.8044 124.442 48.9129 123.981 48.9856 123.673 49.1886 123.447 49.292 123.162 49.4283 122.786 49.5059 122.408 49.7764 122.105 49.9767 121.88 50.111 121.666 50.2257 121.39 50.5447 120.62 50.8699 119.866 51.1699 119.089 51.2989 118.754 51.409 118.197 51.6156 117.916 51.7779 117.694 51.8549 117.403 52.086 117.245 52.3791 117.046 52.5578 116.741 52.795 116.49 53.1876 116.073 53.276 115.4 53.6654 114.963 53.9472 114.646 54.2061 114.31 54.4868 113.995 54.6388 113.824 54.6641 113.418 54.7535 113.206 54.9659 112.701 55.1909 112.195 55.4626 111.724 55.5969 111.49 55.7206 111.286 55.8767 111.079 56.0514 110.848 56.36 110.756 56.5085 110.48 56.575 110.356 57.0886 109.504 57.0771 109.504" class="colorStroke000 svgStroke"/><path stroke="#fff" stroke-linecap="round" stroke-width="4" d="M56.4197 110.449C56.367 110.449 56.2911 110.43 56.2495 110.39 56.1642 110.309 56.2246 110.338 56.2941 110.301 56.5184 110.182 56.5441 109.813 56.6958 109.624 56.8004 109.493 56.852 109.337 56.9846 109.224 57.0385 109.178 57.0553 109.073 57.1031 109.017 57.1639 108.945 57.2097 108.839 57.2593 108.757 57.3084 108.675 57.3545 108.617 57.4114 108.544 57.4591 108.482 57.5968 108.337 57.5997 108.259 57.6047 108.121 57.7272 107.938 57.7949 107.818 57.8633 107.698 57.9304 107.494 58.0265 107.4 58.0918 107.335 58.1653 107.222 58.2022 107.133 58.2288 107.07 58.3009 107.022 58.3333 106.96 58.3979 106.837 58.4956 106.737 58.5537 106.614M52.3274 117.001C52.2989 116.994 52.1638 116.698 52.2144 116.655 52.2902 116.59 52.3295 116.54 52.3915 116.455 52.476 116.34 52.4979 116.169 52.6091 116.075 52.6732 116.02 52.7572 115.96 52.8295 115.909M52.8295 115.909C52.8357 115.783 52.9043 115.673 52.955 115.563 53.0138 115.435 53.0412 115.294 53.0945 115.165 53.124 115.093 53.177 115.026 53.181 114.95 53.1843 114.887 53.3128 114.798 53.3441 114.739 53.3845 114.663 53.4528 114.587 53.5129 114.53 53.6374 114.411 53.824 114.258 53.9035 114.098 53.9585 113.987 54.1601 113.785 54.1601 113.672M36.8869 147.123C36.8783 146.95 36.8123 146.747 36.774 146.576 36.7498 146.468 36.7588 146.328 36.6917 146.239 36.6675 146.206 36.5484 146.028 36.6233 145.885 36.653 145.828 36.708 145.789 36.7419 145.744 36.8012 145.666 36.8427 145.576 36.8981 145.493 37.0784 145.221 37.3505 144.994 37.576 144.766 37.7325 144.608 38.0046 144.351 38.0879 144.13 38.091 144.122 38.0594 144.137 38.0558 144.137 38.0338 144.137 38.0503 144.108 38.0558 144.1 38.0922 144.051 38.1253 143.999 38.1674 143.954 38.2347 143.882 38.3042 143.813 38.3738 143.747 38.4569 143.667 38.55 143.579 38.6444 143.515 38.7069 143.472 38.8324 143.347 38.8703 143.276 38.8854 143.248 38.9063 143.235 38.8564 143.235 38.7325 143.235 38.6147 143.37 38.5384 143.46 38.421 143.598 38.3046 143.708 38.1674 143.821 38.1237 143.857 38.0624 143.868 38.0223 143.907 37.9742 143.953 37.8881 143.959 37.8284 143.994 37.7737 144.026 37.7309 144.081 37.6764 144.114 37.5102 144.215 37.7974 143.93 37.841 143.895 37.9751 143.785 38.0894 143.653 38.219 143.541 38.4091 143.377 38.4184 143.179 38.4184 142.942 38.4184 142.865 38.4367 142.763 38.417 142.69 38.4038 142.641 38.356 142.72 38.3738 142.67 38.4014 142.592 38.475 142.52 38.5188 142.451 38.6332 142.269 38.8167 142.134 38.9457 141.962 39.0604 141.809 39.157 141.636 39.2665 141.477 39.282 141.454 39.3235 141.326 39.3027 141.371 39.28 141.419 39.2944 141.424 39.2344 141.424 39.1834 141.424 39.0518 141.383 39.0084 141.357 38.9688 141.334 38.9234 141.346 38.9861 141.301 39.0833 141.23 39.1721 141.125 39.2414 141.024 39.359 140.853 39.4017 140.613 39.4729 140.418 39.5229 140.28 39.5358 140.159 39.6361 140.052 39.71 139.974 39.7616 139.908 39.8118 139.812 39.8755 139.691 39.9634 139.609 40.0503 139.506 40.1096 139.436 40.0179 139.346 40.1257 139.346M37.7405 143.102C37.7014 143.102 37.5662 143.08 37.5397 143.115 37.5 143.168 37.5901 143.182 37.6401 143.182M40.5115 138.506C41.8906 138.506 41.6301 137.18 42.2498 136.358 42.5516 135.958 42.4587 135.683 42.9319 135.355 43.235 135.145 44.3328 134.514 43.6691 134.514 42.7431 134.514 41.2662 135.864 40.9076 136.72 40.8318 136.901 40.3221 137.81 40.8196 137.234 41.2344 136.754 41.908 135.981 42.4918 135.775" class="colorStroke000 svgStroke"/><path stroke="#fff" stroke-linecap="round" d="M41.3122 133.913C41.3122 133.934 41.3303 133.77 41.3314 133.765C41.3752 133.591 41.4808 133.464 41.591 133.332C41.7788 133.107 42.0045 132.886 42.1536 132.628C42.269 132.427 42.3618 132.217 42.4805 132.021C42.7804 131.526 43.3417 131.319 43.6657 130.843C43.7145 130.771 43.7602 130.708 43.8004 130.631C43.8295 130.575 43.7904 130.577 43.7427 130.598C43.4677 130.717 43.216 130.957 42.9854 131.149C42.5973 131.47 42.1946 131.782 41.8939 132.192C41.8006 132.319 41.8057 132.447 41.7353 132.582C41.7111 132.628 41.5386 132.862 41.5742 132.918C41.5744 132.919 42.041 132.277 42.0815 132.215C42.2595 131.939 42.4267 131.661 42.6224 131.399C43.0445 130.832 43.5459 130.319 43.8989 129.7C43.9527 129.606 44.2594 129.184 43.959 129.409C43.3372 129.876 42.863 130.644 42.4204 131.289C42.2536 131.532 42.0844 131.773 41.9108 132.011C41.8713 132.065 41.7509 132.217 41.8074 132.184C42.1981 131.956 42.3933 131.538 42.6608 131.197C43.5452 130.071 44.3191 128.866 45.125 127.69C45.298 127.438 45.57 127.231 45.7885 127.027C46.1854 126.658 46.5748 126.284 46.9809 125.926C47.1251 125.798 47.359 125.578 47.4137 125.375C47.4491 125.243 47.523 125.256 47.3704 125.191" class="colorStroke000 svgStroke"/><path stroke="#fff" stroke-linecap="round" d="M42.7834 133.729C42.7834 132.688 42.7143 131.632 43.3243 130.748C43.7918 130.071 44.3298 129.546 44.8629 128.93C45.1385 128.611 45.4336 128.312 45.7164 128.002C45.7354 127.981 45.9 127.827 45.8895 127.818C45.7801 127.728 45.2901 128.224 45.2308 128.287C44.6215 128.934 44.2649 129.8 43.7979 130.557C43.5465 130.964 43.2886 131.372 43.0671 131.799C43.004 131.921 42.975 132.035 42.894 132.146C42.8239 132.241 42.7548 132.653 42.7882 132.618C42.9894 132.404 43.1301 132.116 43.269 131.858C43.419 131.578 43.6206 131.33 43.6922 131.011C43.763 130.694 43.8596 130.358 43.8653 130.032C43.8689 129.821 43.8131 129.818 43.6489 129.736C43.4711 129.647 43.156 129.524 43.5191 129.414C43.7021 129.359 43.7946 129.175 43.9302 129.05C44.0465 128.942 44.1784 128.833 44.2739 128.703C44.3714 128.57 44.4093 128.372 44.4807 128.221C44.5325 128.111 44.8173 127.593 44.8173 127.762C44.8173 127.944 44.6393 128.042 44.4951 128.129C44.3283 128.23 44.198 128.373 44.06 128.519C43.8698 128.721 44.1215 128.485 44.1898 128.356C44.5024 127.767 44.8125 127.179 45.1226 126.589C45.4134 126.035 45.7459 125.512 46.1683 125.064C46.2639 124.962 46.3343 124.861 46.3847 124.722C46.4677 124.493 46.5751 124.272 46.6588 124.044C46.7181 123.882 46.8438 123.683 46.9376 123.541C47.01 123.431 47.0443 123.288 47.1324 123.194C47.3159 123 47.5384 122.77 47.6637 122.529C47.7955 122.274 47.8691 121.988 48.0195 121.748C48.2725 121.346 48.403 120.94 48.6037 120.514C48.6509 120.414 48.7627 120.358 48.7984 120.254C48.8432 120.123 48.9269 119.985 48.9955 119.866C49.1519 119.595 49.393 119.402 49.534 119.111C49.5854 119.005 49.6184 118.884 49.6975 118.8C49.7348 118.761 49.825 118.707 49.8177 118.637C49.8112 118.575 49.4525 118.925 49.4427 118.935C48.8801 119.517 48.4713 120.315 48.0892 121.034C47.6706 121.823 47.4302 122.669 47.0915 123.49C46.9075 123.936 46.7252 124.31 46.5915 124.788C46.457 125.269 46.3265 125.767 46.1683 126.237C46.1451 126.306 46.0127 126.643 46.0289 126.66" class="colorStroke000 svgStroke"/><path stroke="#fff" stroke-linecap="round" d="M45.8645 124.609C46.1011 124.609 46.3529 124.577 46.581 124.652 46.6373 124.67 46.3653 124.689 46.2805 124.719M73.1698 83.372C73.1539 83.5236 72.8359 83.7546 72.747 83.8918 72.6726 84.0066 72.6047 84.0913 72.5431 84.2058 72.4229 84.4288 72.1192 84.4314 72.0158 84.6068 71.9484 84.7211 72.2397 84.3187 72.3018 84.248 73.1105 83.3265 73.9494 82.4789 74.8386 81.6466 74.951 81.5414 75.0183 81.433 75.06 81.2825 75.1448 80.9766 75.4793 80.6102 75.7116 80.4276 76.2397 80.0127 76.3685 79.1979 76.8308 78.7074 76.8716 78.6642 76.9905 78.5734 76.9726 78.5069 76.9445 78.4027 76.6383 78.5054 76.592 78.5544 76.5241 78.6265 76.4763 78.7097 76.4179 78.7892 76.3764 78.8459 76.4159 78.9259 76.3682 78.9765 76.2842 79.0657 76.1929 79.1409 76.0996 79.2219 75.6533 79.6092 75.4503 80.2764 75.0724 80.739 74.686 81.212 74.2199 81.627 73.9309 82.1637 73.8315 82.3481 73.5279 82.5403 73.5279 82.7547 73.5279 83.1117 73.6614 83.5099 73.7717 83.8443 73.909 84.2604 73.9165 84.7679 73.998 85.2004 74.0304 85.3721 74.042 85.6322 74.1547 85.7729 74.2869 85.938 74.1995 86.4031 74.1995 86.6066 74.1995 87.4907 74.2442 88.3819 74.2442 89.2608 74.2442 89.5905 74.1957 88.8414 74.1895 88.7754 74.1768 88.6385 74.1055 87.7673 74.0652 87.7886M153.318 190.213C153.701 190.213 154.22 190.968 154.483 191.218 155.044 191.75 155.623 192.262 156.15 192.832 156.29 192.983 156.359 193.122 156.456 193.294 156.491 193.356 156.436 192.689 156.424 192.626 156.265 191.826 156.008 191.047 155.791 190.264 155.581 189.509 155.405 188.706 154.996 188.039 154.825 187.76 154.62 187.617 154.443 187.367 154.332 187.21 154.11 187.127 154.06 187.38 153.904 188.171 154.019 189.232 154.133 190.007 154.207 190.516 154.357 191.007 154.439 191.514 154.493 191.846 154.516 192.209 154.661 192.515 154.9 193.022 154.773 192.099 154.762 191.925 154.705 191.002 154.267 190.115 153.899 189.288 153.875 189.235 153.777 189.058 153.842 188.997 153.894 188.949 153.912 189.44 153.915 189.46 154.049 190.521 154.612 191.684 155.129 192.588 155.372 193.013 155.586 193.629 155.968 193.944 156.209 194.143 155.856 193.09 155.815 193.02 155.638 192.721 154.882 191.973 154.992 191.565 155.056 191.326 155.253 191.794 155.262 191.83 155.348 192.174 155.655 192.423 155.859 192.695 156.224 193.181 156.576 193.661 156.989 194.099 157.337 194.468 157.894 194.651 158.126 195.143 158.287 195.484 158.316 195.641 158.627 195.905 159.546 196.685 160.31 197.656 161.015 198.652 161.175 198.878 161.402 199.413 161.632 199.559 161.676 199.587 161.414 199.22 161.398 199.2 160.91 198.598 160.413 197.998 159.962 197.364 159.309 196.446 158.691 195.451 158.126 194.467 158.011 194.265 157.897 194.086 157.731 193.927 157.642 193.842 157.511 193.66 157.416 193.602 157.249 193.501 157.501 193.772 157.566 193.91 157.881 194.579 158.483 195.076 158.974 195.596 159.308 195.951 159.556 196.369 159.889 196.722 159.939 196.775 160.231 197.057 160.2 196.992 160.055 196.684 159.793 196.384 159.619 196.093 158.481 194.185 157.323 192.268 156.113 190.414 156.038 190.299 155.726 190.037 155.819 190.136 156.095 190.429 156.536 190.683 156.835 190.974 157.628 191.746 158.415 192.555 159.038 193.491 159.076 193.548 159.728 194.575 159.45 194.334 159.321 194.223 159.064 194.098 158.982 193.944 158.483 193.018 158.032 192.101 157.602 191.137 157.297 190.455 157.206 189.663 156.839 189.014 156.677 188.727 156.583 188.381 156.367 188.133 156.178 187.914 156.054 187.707 155.948 187.44 155.864 187.227 155.874 186.961 155.787 186.729 155.711 186.528 155.624 185.898 155.48 185.762 155.4 185.686 155.179 186.601 155.169 186.669 155.079 187.284 155.149 187.846 155.31 188.437 155.485 189.077 155.803 189.629 156.021 190.23 156.097 190.441 156.295 190.675 156.444 190.833 156.489 190.881 157.013 191.488 157.013 191.317 157.013 190.718 156.371 189.965 156.077 189.515 155.689 188.921 155.321 188.322 154.955 187.713 154.849 187.535 154.915 187.905 154.915 188.013 154.915 188.523 155.082 189.029 155.206 189.519 155.419 190.364 156.069 190.969 156.404 191.758 156.597 192.214 156.747 192.697 156.932 193.14 157.021 193.352 156.971 193.91 157.239 193.91" class="colorStroke000 svgStroke"/><path stroke="#fff" stroke-linecap="round" stroke-width="3" d="M157.384 200.381C158.102 200.381 158.794 200.327 159.474 200.612C159.657 200.689 159.806 200.689 159.998 200.689C160.188 200.689 160.185 200.795 160.329 200.839C160.697 200.95 161.019 201.074 161.434 201.074C161.621 201.074 161.813 201.119 161.668 200.86C161.381 200.345 161.529 199.575 161.41 199.003C161.374 198.827 161.232 198.147 160.979 198.147C160.846 198.147 160.726 198.165 160.652 198.027C160.556 197.849 160.343 197.623 160.212 197.449C159.887 197.018 159.514 196.696 159.143 196.315C158.676 195.838 158.386 195.265 157.961 194.758C157.397 194.085 156.959 193.353 156.658 192.507C156.634 192.44 156.558 191.752 156.658 191.865C156.901 192.137 157.03 192.744 157.223 193.08C157.538 193.63 157.818 194.194 158.332 194.569C158.784 194.899 159.402 195.2 159.797 195.588C160.026 195.814 160.154 196.177 160.22 196.491C160.315 196.946 160.705 197.49 160.906 197.916C161.155 198.444 161.448 198.91 161.612 199.474C161.678 199.7 161.742 200.227 161.923 200.381C162.076 200.511 162.322 201.052 162.322 200.843" class="colorStroke000 svgStroke"/><path stroke="#fff" stroke-linecap="round" stroke-width="3" d="M146.129 153.006C146.129 153.566 146.401 154.157 146.601 154.663 146.748 155.035 147.073 155.485 147.073 155.895 147.073 156.45 147 156.913 147 157.474 147 158.149 147.145 158.805 147.145 159.477 147.145 160.418 147.218 161.352 147.218 162.293 147.218 163.367 147.57 164.263 147.871 165.794 148.023 166.564 148.089 167.376 148.275 168.135 148.381 168.569 148.401 169.024 148.525 169.453 148.713 170.1 149.038 170.728 149.175 171.378 149.223 171.612 149.309 171.822 149.38 172.05 149.459 172.302 149.483 172.821 149.63 173.017 149.722 173.139 149.751 173.337 149.759 173.497 149.782 173.909 149.857 173.382 149.816 173.172 149.773 172.946 149.671 172.701 149.574 172.495 149.339 171.997 149.194 171.49 149.033 170.959 148.858 170.381 148.61 169.707 148.529 169.106 148.423 168.319 148.235 167.438 148.235 166.645 148.235 166.128 148.088 165.808 147.96 165.349 147.863 165.001 147.943 164.592 147.815 164.253 147.735 164.04 147.666 163.711 147.654 163.483 147.628 162.997 147.581 163.935 147.581 164.06 147.581 164.733 147.768 165.203 147.98 165.828 148.28 166.709 148.711 167.68 149.215 168.451 149.495 168.881 149.542 169.258 149.542 169.761 149.542 170.896 150.023 172.062 150.231 173.167 150.629 175.275 150.553 176.798 151.43 178.658 151.643 179.11 152.003 179.769 152.406 180.074 152.447 180.106 152.396 179.617 152.265 179.505 152.127 179.388 152.022 179.156 151.902 179 151.424 178.381 151.272 177.587 150.978 176.886 150.884 176.663 150.89 176.428 150.833 176.193 150.737 175.797 150.568 175.432 150.47 175.037 150.409 174.794 150.268 174.063 150.268 174.314 150.268 174.828 150.322 175.224 150.522 175.696 150.873 176.528 151.197 177.343 151.611 178.123 152.646 180.075 153.699 182.1 154.391 184.221 154.457 184.424 154.492 184.674 154.588 184.859 154.67 185.014 154.771 185.227 154.843 185.398 154.987 185.744 155.097 186.098 155.246 186.442 155.726 187.554 156.23 188.661 156.783 189.733 157.067 190.284 157.445 190.802 157.634 191.402 157.748 191.764 157.82 192.237 157.82 192.601 157.82 192.984 158.069 193.366 158.11 193.756 158.147 194.102 158.507 194.404 158.546 194.758 158.561 194.891 158.689 195.029 158.78 195.126 158.902 195.255 158.91 195.375 158.982 195.528M142.861 92.6904C142.861 93.7532 143.224 94.7197 143.224 95.7717 143.224 96.1979 143.297 96.606 143.297 97.0213 143.297 97.6506 143.211 98.3477 143.301 98.9685 143.362 99.3928 143.33 99.3986 143.41 99.5077 143.812 100.056 143.805 99.14 143.805 98.853 143.805 98.545 143.799 99.0921 143.789 99.1611 143.725 99.6164 143.732 100.062 143.732 100.522 143.732 102.154 144.056 103.743 144.241 105.358 144.269 105.608 144.251 105.984 144.35 106.214 144.378 106.28 144.386 106.642 144.386 106.436 144.386 104.955 144.168 103.485 144.168 102.011 144.168 101.683 144.168 101.355 144.168 101.027 144.168 100.561 144.023 100.126 144.023 99.6661 144.023 99.2281 144.023 98.7902 144.023 98.3523 144.023 97.5888 143.95 98.7995 143.95 99.007 143.95 100.834 144.061 102.543 144.459 104.322 144.633 105.104 144.886 105.849 145.112 106.616 145.243 107.059 145.548 107.581 145.548 108.054 145.548 108.312 145.548 108.57 145.548 108.829 145.548 109.464 145.479 110.261 145.657 110.866 145.727 111.106 145.62 112.592 145.62 113.219 145.62 114.29 145.838 115.331 145.838 116.399 145.838 116.733 145.838 117.067 145.838 117.401 145.838 117.95 145.976 118.698 145.834 119.224 145.792 119.382 145.766 119.022 145.766 119.091 145.766 119.828 145.796 120.568 145.693 121.299 145.553 122.295 145.36 123.359 145.33 124.368 145.311 124.997 145.216 125.631 145.169 126.259 145.132 126.744 145.163 127.261 145.096 127.74 144.98 128.571 145.039 129.393 145.039 130.449 145.039 130.77 145.057 131.779 145.189 131.009 145.339 130.133 145.51 129.268 145.62 128.382 145.732 127.491 146.034 126.566 145.983 125.66 145.971 125.433 145.838 125.188 145.838 124.928 145.838 124.635 145.766 124.319 145.766 124.008 145.766 123.695 145.911 123.416 145.911 123.118" class="colorStroke000 svgStroke"/><path stroke="#fff" stroke-linecap="round" stroke-width="3" d="M146.347 126.893C146.118 126.923 146.274 131.235 146.274 131.861 146.274 132.192 146.162 132.673 146.072 132.995 146.009 133.22 146.056 133.516 146.056 133.748 146.056 134.189 145.983 134.628 145.983 135.075 145.983 137.248 145.983 139.42 145.983 141.593 145.983 141.69 145.983 142.251 145.983 141.88 145.983 141.531 145.983 141.183 145.983 140.835 145.983 140.204 145.933 139.548 146.056 138.927 146.123 138.587 146.274 138.225 146.274 137.874 146.274 137.551 146.274 137.229 146.274 136.907 146.274 136.619 146.274 137.062 146.274 137.142 146.274 137.606 146.25 138.079 146.29 138.541 146.42 140.039 146.71 141.491 146.71 142.992 146.71 143.289 146.71 143.586 146.71 143.882 146.71 143.969 146.757 144.294 146.693 144.362 146.596 144.466 146.435 144.316 146.423 144.212 146.208 142.388 145.693 140.567 145.693 138.713 145.693 137.831 145.693 136.949 145.693 136.068 145.693 135.914 145.796 134.899 146 135.46 146.121 135.795 146.401 136.049 146.621 136.308 146.798 136.516 146.956 136.676 146.601 136.676 145.925 136.676 146.201 138.705 146.201 139.098 146.201 140.051 146.126 141.044 146.242 141.991 146.343 142.822 146.466 143.678 146.492 144.516 146.504 144.919 146.522 145.275 146.621 145.996 146.707 146.621 146.62 147.288 146.726 147.905 146.79 148.278 146.855 148.621 146.855 149.001 146.855 150.13 146.927 151.265 146.927 152.386 146.927 153.124 147.073 153.997 147.073 154.855 147.073 155.207 146.991 155.691 147.089 156.028 147.19 156.376 147.265 156.901 147.291 157.26 147.318 157.639 147.448 158.024 147.565 158.381 147.632 158.588 147.726 159.234 147.726 159.015M149.687 171.34C149.707 171.536 149.857 171.727 149.961 171.879 150.199 172.224 150.375 172.622 150.558 173 150.64 173.169 150.984 173.551 150.994 173.728 151.02 174.195 151.387 174.88 151.611 175.307 151.76 175.59 151.796 175.998 151.861 176.308 151.919 176.582 152.063 176.902 152.083 177.177 152.103 177.447 152.35 177.658 152.43 177.905 152.535 178.225 152.688 178.626 152.846 178.928 153.072 179.36 153.343 179.925 153.467 180.387 153.5 180.509 153.553 180.968 153.644 181.046 153.789 181.169 153.872 181.394 154.003 181.534 154.039 181.572 153.971 181.291 153.971 181.465 153.971 182.085 154.139 182.689 154.278 183.28 154.35 183.586 154.448 183.975 154.588 184.243 154.775 184.599 155.06 185.768 155.06 185.36M155.133 185.745C155.133 186.389 155.696 186.987 155.859 187.594 155.948 187.922 156.108 187.992 156.331 188.176 156.543 188.35 156.67 188.656 156.787 188.903 156.962 189.275 157.201 189.688 157.328 190.076 157.797 191.514 158.354 192.886 158.982 194.218" class="colorStroke000 svgStroke"/><path fill="#fff" d="M159.287 30.4264C146.418 41.72 132.895 47.3764 129.083 43.0604C125.271 38.7444 132.614 26.0903 145.483 14.7968C158.352 3.50321 171.874 -2.15322 175.686 2.16278C179.498 6.47878 172.156 19.1328 159.287 30.4264Z" class="color000 svgShape"/><ellipse fill="#fff" class="color000 svgShape" rx="10.193" ry="25.99" transform="rotate(34.933 13.625 240.624) skewX(-.157)"/><path stroke="#fff" d="M166.441 22.5146C153.732 34.7852 143.379 47.6122 143.313 46.8918M159.194 6.49449C157.257 5.87502 129.245 25.7428 131.697 36.1651" class="colorStroke000 svgStroke"/><ellipse fill="#fff" class="color000 svgShape" rx="5.469" ry="33.904" transform="rotate(44.838 35.359 199.073) skewX(-.179)"/><path stroke="#fff" stroke-width=".95" d="M155.627 34.9903C142.709 48.6135 131.249 59.4147 141.238 46.8593" class="colorStroke000 svgStroke"/></svg></svg>