<svg xmlns="http://www.w3.org/2000/svg" xmlns:xlink="http://www.w3.org/1999/xlink" width="276" zoomAndPan="magnify" viewBox="0 0 206.87999 247.499998" height="330" preserveAspectRatio="xMidYMid meet" version="1.0"><defs><clipPath id="ded21de1ac"><path d="M 0.148438 0 L 206.613281 0 L 206.613281 247 L 0.148438 247 Z M 0.148438 0 " clip-rule="nonzero"/></clipPath></defs><g clip-path="url(#ded21de1ac)"><path fill="#000000" d="M 178.054688 142.941406 C 177.484375 142.941406 177.484375 142.941406 178.054688 142.941406 L 177.484375 137.792969 C 177.484375 134.9375 175.195312 132.648438 172.335938 132.078125 C 170.621094 132.078125 168.90625 131.503906 167.191406 131.503906 C 167.191406 131.503906 166.621094 130.933594 166.621094 130.933594 C 155.757812 121.214844 143.75 114.351562 131.171875 110.351562 C 149.464844 100.628906 162.046875 81.191406 162.046875 58.890625 C 162.046875 26.300781 135.746094 0 103.152344 0 C 70.5625 0 44.261719 26.300781 44.261719 58.890625 C 44.261719 81.191406 56.839844 100.628906 75.136719 110.351562 C 62.558594 114.351562 50.550781 121.214844 39.6875 130.363281 C 39.6875 130.363281 39.117188 130.933594 39.117188 131.503906 C 37.402344 131.503906 35.6875 131.503906 33.972656 132.078125 C 31.113281 132.648438 28.824219 134.9375 28.824219 137.792969 L 28.824219 142.367188 C 28.253906 142.941406 27.679688 142.941406 27.679688 143.511719 C 10.527344 165.8125 0.238281 196.113281 0.238281 224.703125 C 0.238281 228.132812 2.523438 230.417969 5.953125 230.417969 L 29.398438 230.417969 C 29.398438 231.5625 29.96875 232.707031 31.113281 233.277344 C 32.253906 234.421875 33.972656 234.992188 35.6875 234.992188 C 76.28125 230.992188 100.296875 245.859375 100.296875 246.429688 C 100.296875 246.429688 100.867188 246.429688 100.867188 247 C 100.867188 247 101.4375 247 101.4375 247 C 102.011719 247 102.011719 247 102.582031 247 C 102.582031 247 103.152344 247 103.152344 247 C 103.726562 247 104.296875 247 104.871094 247 C 104.871094 247 104.871094 247 105.441406 247 C 106.011719 247 106.011719 247 106.585938 246.429688 C 106.585938 246.429688 130.597656 230.992188 171.195312 234.992188 C 172.910156 234.992188 174.625 234.421875 175.769531 233.277344 C 176.339844 232.707031 176.910156 231.5625 177.484375 230.417969 L 200.925781 230.417969 C 204.355469 230.417969 206.644531 228.132812 206.644531 224.703125 C 206.644531 193.828125 196.351562 164.667969 178.054688 142.941406 Z M 55.699219 58.890625 C 55.699219 32.589844 76.851562 11.433594 103.152344 11.433594 C 129.457031 11.433594 150.609375 32.589844 150.609375 58.890625 C 150.609375 85.191406 129.457031 106.347656 103.152344 106.347656 C 76.851562 106.347656 55.699219 85.191406 55.699219 58.890625 Z M 148.324219 131.503906 C 124.882812 133.21875 109.445312 140.082031 103.152344 143.511719 C 96.863281 140.082031 81.425781 133.21875 57.984375 131.503906 C 71.707031 122.355469 87.144531 117.78125 103.152344 117.78125 C 119.164062 117.78125 134.601562 122.355469 148.324219 131.503906 Z M 28.824219 162.378906 L 28.824219 218.984375 L 11.671875 218.984375 C 12.242188 199.542969 18.535156 178.960938 28.824219 162.378906 Z M 166.046875 222.988281 C 132.886719 220.699219 111.160156 230.417969 103.152344 234.992188 C 95.148438 230.992188 73.421875 221.273438 40.261719 222.988281 L 40.261719 142.941406 C 77.425781 140.652344 99.722656 154.375 100.296875 154.375 C 100.867188 154.375 101.4375 154.949219 101.4375 154.949219 C 101.4375 154.949219 102.011719 154.949219 102.011719 154.949219 C 102.582031 154.949219 103.152344 154.949219 103.726562 154.949219 C 103.726562 154.949219 104.296875 154.949219 104.296875 154.949219 C 104.871094 154.949219 105.441406 154.375 106.011719 154.375 C 106.011719 154.375 106.011719 154.375 106.585938 154.375 C 107.15625 153.804688 128.882812 140.082031 166.046875 142.941406 Z M 177.484375 218.984375 L 177.484375 162.378906 C 187.773438 178.960938 194.0625 198.402344 194.636719 218.984375 Z M 177.484375 218.984375 " fill-opacity="1" fill-rule="nonzero"/></g></svg>