<svg xmlns="http://www.w3.org/2000/svg" xmlns:xlink="http://www.w3.org/1999/xlink" width="387" zoomAndPan="magnify" viewBox="0 0 290.25 247.500006" height="330" preserveAspectRatio="xMidYMid meet" version="1.0"><defs><clipPath id="5b3c927641"><path d="M 111 72 L 289.5 72 L 289.5 246.78125 L 111 246.78125 Z M 111 72 " clip-rule="nonzero"/></clipPath><clipPath id="e77c2ba15b"><path d="M 2 0.0703125 L 236 0.0703125 L 236 203 L 2 203 Z M 2 0.0703125 " clip-rule="nonzero"/></clipPath></defs><g clip-path="url(#5b3c927641)"><path fill="#100f0d" d="M 227.601562 160.402344 C 207.570312 160.402344 191.269531 144.121094 191.269531 124.105469 C 191.269531 104.09375 207.570312 87.808594 227.601562 87.808594 C 247.644531 87.808594 263.945312 104.09375 263.945312 124.105469 C 263.945312 144.121094 247.644531 160.402344 227.601562 160.402344 Z M 256.035156 167.371094 C 270.132812 158.097656 279.492188 142.191406 279.492188 124.105469 C 279.492188 95.527344 256.214844 72.285156 227.601562 72.285156 C 198.992188 72.285156 175.726562 95.527344 175.726562 124.105469 C 175.726562 132.6875 178.023438 140.664062 181.734375 147.796875 C 174.835938 141.9375 167.472656 134.355469 161.019531 124.71875 C 156.976562 118.683594 150.824219 114.585938 143.699219 113.171875 C 136.542969 111.753906 129.304688 113.195312 123.289062 117.234375 C 117.242188 121.269531 113.132812 127.414062 111.722656 134.535156 C 110.304688 141.65625 111.75 148.902344 115.789062 154.933594 C 132.890625 180.484375 154.207031 196.421875 168.179688 204.953125 C 166.558594 210.542969 165.734375 216.316406 165.734375 222.203125 L 165.734375 238.921875 C 165.734375 243.210938 169.214844 246.6875 173.503906 246.6875 C 177.792969 246.6875 181.277344 243.210938 181.277344 238.921875 L 181.277344 222.203125 C 181.277344 216.078125 182.472656 210.097656 184.824219 204.453125 C 186.34375 200.796875 184.871094 196.589844 181.398438 194.675781 C 169.367188 188.03125 146.527344 172.910156 128.714844 146.296875 C 126.980469 143.710938 126.363281 140.605469 126.96875 137.558594 C 127.578125 134.507812 129.332031 131.871094 131.933594 130.136719 C 134.511719 128.414062 137.585938 127.800781 140.664062 128.402344 C 143.71875 129.011719 146.367188 130.769531 148.09375 133.351562 C 169.660156 165.5625 200.179688 178.027344 200.472656 178.144531 C 201.117188 178.40625 201.707031 178.761719 202.285156 179.117188 C 204.441406 180.441406 207.109375 180.636719 209.414062 179.636719 C 215.171875 177.179688 221.292969 175.929688 227.601562 175.929688 C 253.148438 175.929688 273.941406 196.6875 273.941406 222.203125 L 273.941406 238.921875 C 273.941406 243.210938 277.421875 246.6875 281.710938 246.6875 C 286 246.6875 289.484375 243.210938 289.484375 238.921875 L 289.484375 222.203125 C 289.484375 198.363281 275.875 177.671875 256.035156 167.371094 " fill-opacity="1" fill-rule="nonzero"/></g><g clip-path="url(#e77c2ba15b)"><path fill="#100f0d" d="M 112.148438 187.476562 L 20.320312 187.476562 C 18.78125 127.1875 17.351562 38.332031 19.058594 15.476562 L 219.832031 15.476562 L 219.832031 53.90625 C 219.832031 58.195312 223.3125 61.671875 227.601562 61.671875 C 231.890625 61.671875 235.375 58.195312 235.375 53.90625 L 235.375 7.714844 C 235.375 3.425781 231.890625 -0.046875 227.601562 -0.046875 L 12.75 -0.046875 C 10.652344 -0.046875 8.449219 0.894531 6.988281 2.398438 C 4.207031 5.25 0.00390625 9.558594 4.972656 195.449219 C 5.089844 199.652344 8.535156 203 12.75 203 L 112.148438 203 C 116.4375 203 119.917969 199.527344 119.917969 195.238281 C 119.917969 190.949219 116.4375 187.476562 112.148438 187.476562 " fill-opacity="1" fill-rule="nonzero"/></g></svg>